<?xml version="1.0" encoding="UTF-8"?>
<svg id="Lag_1" data-name="Lag 1" xmlns="http://www.w3.org/2000/svg" width="210mm" height="297mm" viewBox="0 0 595.28 841.89">
  <defs>
    <style>
      .cls-1 {
        fill: #3b5776;
      }
    </style>
  </defs>
  <path class="cls-1" d="M143.82,365.83c75.52,5.14,191.85,9.56,227.88,17.13,10.02,2.1,27.74-1.08,27.02,14.77,3.6-5.04,40.03,1.63,49.49,2.07,0,0,.65,8.18,1.32,17.62.72,10.09,1.01,15.89-2.89,16.34-12.25,1.44-35.18,5.36-46.9,2.51,1.45,10.43-13.64,13.47-24.11,14.66-57.37,6.54-173.62,13.13-231.81,17.17,0,0,1.6,8.18,1.24-24.61-.08-6.95-.42-77.66-1.24-77.66Z"/>
</svg>