<?xml version="1.0" encoding="UTF-8"?>
<svg id="Lag_2" data-name="Lag 2" xmlns="http://www.w3.org/2000/svg" width="306.15" height="103.18" viewBox="0 0 306.15 103.18">
  <defs>
    <style>
      .cls-1 {
        fill: #fff;
      }

      .cls-2 {
        fill: #3b5776;
      }
    </style>
  </defs>
  <g id="Lag_1-2" data-name="Lag 1">
    <g>
      <path class="cls-2" d="M0,0c75.52,5.14,191.85,9.56,227.88,17.13,10.02,2.1,27.74-1.08,27.02,14.77,3.6-5.04,40.03,1.63,49.49,2.07,0,0,.65,8.18,1.32,17.62.72,10.09,1.01,15.89-2.89,16.34-12.25,1.44-35.18,5.36-46.9,2.51,1.45,10.43-13.64,13.47-24.11,14.66-57.37,6.54-173.62,13.13-231.81,17.17,0,0,1.6,8.18,1.24-24.61C1.16,70.71.82,0,0,0Z"/>
      <g>
        <path class="cls-1" d="M87.86,43.23c0-.15-.06-.26-.17-.33-.11-.07-.31-.11-.59-.11h-6.48v2.48h3.92c.27,0,.47-.04.62-.11.15-.07.22-.26.22-.57h.36v3.12h-.36c0-.31-.07-.5-.22-.59-.15-.09-.35-.13-.62-.13h-3.92v2.76h6.68c.2,0,.36-.05.49-.14.13-.09.19-.22.19-.38h.36v2.74h-.36c0-.2-.06-.31-.19-.34-.13-.03-.29-.04-.49-.04h-9.32v-.36c.09,0,.18-.03.25-.09.07-.06.11-.15.11-.27v-9.08c0-.12-.04-.21-.11-.27-.07-.06-.16-.09-.25-.09v-.36h9.12c.28,0,.48-.04.59-.13.11-.09.17-.2.17-.35h.36v2.64h-.36Z"/>
        <path class="cls-1" d="M93.6,43.15c-.16,0-.24.07-.24.22,0,.07.04.15.12.26.08.11.18.23.3.38l1.4,1.7,1.52-1.86c.21-.25.32-.43.32-.54s-.09-.16-.26-.16v-.36h3.06v.36c-.21,0-.39.07-.52.2l-3.02,3.64,2.78,3.5c.11.12.23.27.38.46.15.19.32.28.52.28v.36h-3.06v-.36c.09-.01.14-.07.14-.16,0-.04-.07-.17-.22-.4l-1.74-2.14-1.7,2.08c-.19.23-.28.39-.28.48s.06.14.18.14v.36h-2.92v-.36c.08,0,.18-.02.29-.06s.22-.12.31-.24l3.04-3.74-2.76-3.44c-.19-.23-.34-.38-.46-.47-.12-.09-.23-.13-.32-.13v-.36h3.14v.36Z"/>
        <path class="cls-1" d="M102.56,43.45c0-.2-.17-.3-.5-.3v-.36h5.82c1.08,0,1.89.19,2.43.58.54.39.81,1.06.81,2.02s-.27,1.62-.81,1.99c-.54.37-1.35.55-2.43.55h-3.4v3c0,.2.14.3.42.3v.36h-2.84v-.36c.33,0,.5-.1.5-.3v-7.48ZM107.84,46.45c.39,0,.71-.07.97-.21s.39-.42.39-.85-.13-.7-.39-.87-.58-.25-.97-.25h-3.36v2.18h3.36Z"/>
        <path class="cls-1" d="M116.26,42.79v.36c-.31,0-.46.1-.46.3v6.66h5.4c.16,0,.29-.04.4-.11s.16-.18.16-.31h.36v2.1h-.36c0-.11-.05-.17-.16-.18-.11-.01-.24-.02-.4-.02h-7.84v-.36c.35,0,.52-.1.52-.3v-7.48c0-.2-.17-.3-.52-.3v-.36h2.9Z"/>
        <path class="cls-1" d="M129.06,42.67c.73,0,1.42.09,2.07.28.65.19,1.21.47,1.69.84.48.37.86.84,1.14,1.41.28.57.42,1.23.42,1.99s-.14,1.42-.42,1.99c-.28.57-.66,1.04-1.14,1.41-.48.37-1.04.64-1.69.81-.65.17-1.34.25-2.07.25s-1.42-.08-2.07-.25c-.65-.17-1.21-.44-1.69-.81-.48-.37-.86-.84-1.14-1.41-.28-.57-.42-1.23-.42-1.99s.14-1.42.42-1.99c.28-.57.66-1.04,1.14-1.41.48-.37,1.04-.65,1.69-.84.65-.19,1.34-.28,2.07-.28ZM129.06,44.15c-.43,0-.84.07-1.25.21-.41.14-.77.34-1.09.6-.32.26-.58.58-.77.95-.19.37-.29.8-.29,1.28s.1.91.29,1.28c.19.37.45.69.77.95.32.26.68.46,1.09.6.41.14.82.21,1.25.21s.84-.07,1.25-.21c.41-.14.77-.34,1.09-.6.32-.26.58-.58.77-.95.19-.37.29-.8.29-1.28s-.1-.91-.29-1.28c-.19-.37-.45-.69-.77-.95-.32-.26-.68-.46-1.09-.6-.41-.14-.82-.21-1.25-.21Z"/>
        <path class="cls-1" d="M142.26,42.79c1.19,0,2.11.2,2.78.59.67.39,1,1.06,1,2.01,0,.36-.07.68-.2.96-.13.28-.31.52-.53.73-.22.21-.46.37-.73.5-.27.13-.54.22-.82.29l1.96,2.86c.11.15.22.26.35.33s.26.13.41.17v.36h-3.06v-.36c.17,0,.26-.06.26-.18,0-.13-.1-.34-.3-.62l-1.58-2.36h-2.78v2.86c0,.11.04.18.13.23.09.05.17.07.25.07v.36h-2.66v-.36c.24,0,.36-.1.36-.3v-7.48c0-.2-.12-.3-.36-.3v-.36h5.52ZM142.22,46.59c1.31,0,1.96-.41,1.96-1.24,0-.33-.16-.6-.47-.79-.31-.19-.81-.29-1.49-.29h-3.16v2.32h3.16Z"/>
        <path class="cls-1" d="M156.76,44.65c0-.25-.21-.38-.62-.38h-4.88v2h3.08c.23,0,.39-.02.5-.05.11-.03.16-.12.16-.27h.36v2.12h-.4c.04-.15-.01-.24-.16-.27-.15-.03-.35-.05-.62-.05h-2.92v2.36h5.12c.16,0,.29-.04.4-.11s.16-.17.16-.29h.36v2.1h-.36c0-.12-.05-.19-.16-.2-.11-.01-.24-.02-.4-.02h-7.34v-.36c.07,0,.13-.02.2-.07.07-.05.1-.12.1-.23v-7.48c0-.11-.03-.18-.1-.23-.07-.05-.13-.07-.2-.07v-.36h7.1c.41,0,.62-.12.62-.36h.36v2.22h-.36Z"/>
        <path class="cls-1" d="M166.48,51.23c.07-.01.12-.04.17-.08.05-.04.07-.13.07-.28v-7.32c0-.19-.02-.3-.05-.34s-.1-.06-.19-.06v-.36h2.78v.36c-.13,0-.2.06-.2.18,0,.05.02.12.07.21s.12.21.21.37l2.44,4.5,2.46-4.48c.09-.16.17-.29.22-.39.05-.1.08-.17.08-.21,0-.12-.05-.18-.16-.18v-.36h2.82v.36c-.07,0-.13.02-.19.05-.06.03-.09.1-.09.21v7.52c0,.11.03.18.09.23.06.05.12.07.19.07v.36h-2.32v-.36c.28,0,.4-.1.36-.3v-5.62h-.04l-3.4,6.28h-.16l-3.22-6.28h.02-.04v5.62c0,.2.11.3.34.3v.36h-2.26v-.36Z"/>
        <path class="cls-1" d="M188.42,44.65c0-.25-.21-.38-.62-.38h-4.88v2h3.08c.23,0,.39-.02.5-.05.11-.03.16-.12.16-.27h.36v2.12h-.4c.04-.15-.01-.24-.16-.27-.15-.03-.35-.05-.62-.05h-2.92v2.36h5.12c.16,0,.29-.04.4-.11s.16-.17.16-.29h.36v2.1h-.36c0-.12-.05-.19-.16-.2-.11-.01-.24-.02-.4-.02h-7.34v-.36c.07,0,.13-.02.2-.07.07-.05.1-.12.1-.23v-7.48c0-.11-.03-.18-.1-.23-.07-.05-.13-.07-.2-.07v-.36h7.1c.41,0,.62-.12.62-.36h.36v2.22h-.36Z"/>
        <path class="cls-1" d="M195.16,41.03c-.2.05-.33.11-.38.18-.05.07-.09.18-.12.34l-.62,5.34c-.01.11-.03.2-.04.29-.01.09-.02.18-.02.27,0,.11.03.18.1.21.07.03.15.05.26.05v.24h-1.68v-.24c.11,0,.19-.02.26-.05.07-.03.1-.1.1-.21,0-.09,0-.18-.02-.27-.01-.09-.03-.18-.04-.29l-.62-5.34c-.03-.16-.07-.27-.12-.34-.05-.07-.18-.13-.38-.18v-.24h3.32v.24ZM193.5,49.15c.35,0,.65.13.9.38.25.25.38.55.38.9s-.13.64-.38.87c-.25.23-.55.35-.9.35s-.65-.12-.9-.35c-.25-.23-.38-.52-.38-.87s.13-.65.38-.9c.25-.25.55-.38.9-.38Z"/>
      </g>
    </g>
  </g>
</svg>