<?xml version="1.0" encoding="UTF-8"?>
<svg id="Lag_2" data-name="Lag 2" xmlns="http://www.w3.org/2000/svg" width="108mm" height="36.4mm" viewBox="0 0 306.14 103.17">
  <defs>
    <style>
      .cls-1 {
        fill: #fff;
      }

      .cls-2 {
        fill: #34411b;
      }
    </style>
  </defs>
  <g id="Lag_1-2" data-name="Lag 1">
    <g>
      <path class="cls-2" d="M0,0c75.52,5.14,191.85,9.56,227.88,17.13,10.02,2.1,27.74-1.08,27.02,14.77,3.6-5.04,40.03,1.63,49.49,2.07,0,0,.65,8.18,1.32,17.62.72,10.09,1.01,15.89-2.89,16.34-12.25,1.44-35.18,5.36-46.9,2.51,1.45,10.43-13.64,13.47-24.11,14.66-57.37,6.54-173.62,13.13-231.81,17.17,0,0,1.6,8.18,1.24-24.61C1.17,70.71.83,0,0,0Z"/>
      <g>
        <path class="cls-1" d="M78.53,48.51l.2.1c0,.12.03.23.08.32.09.16.28.32.55.47.27.15.59.29.94.41.35.12.72.22,1.11.29s.73.11,1.04.11c.23,0,.52-.02.88-.05.36-.03.71-.1,1.06-.21.35-.11.65-.25.9-.44s.38-.43.38-.74-.12-.53-.35-.68c-.23-.15-.54-.25-.92-.32-.38-.07-.81-.11-1.3-.13-.49-.02-.98-.05-1.49-.09-.51-.04-1-.11-1.49-.2-.49-.09-.92-.25-1.3-.47s-.69-.52-.92-.9c-.23-.38-.35-.88-.35-1.49,0-.41.1-.82.29-1.22.19-.4.49-.75.89-1.06.4-.31.91-.56,1.52-.75.61-.19,1.33-.29,2.16-.29.71,0,1.32.05,1.84.16s.97.22,1.35.34c.38.12.7.23.96.34.26.11.48.16.65.16.19,0,.32-.04.4-.12l.24.16-1.38,2.5-.2-.08c-.03-.19-.08-.34-.16-.46-.11-.16-.28-.32-.53-.47s-.54-.29-.87-.41c-.33-.12-.69-.22-1.08-.29-.39-.07-.77-.11-1.16-.11-.29,0-.6.02-.91.07-.31.05-.6.12-.85.21-.25.09-.46.22-.63.37-.17.15-.25.34-.25.57,0,.32.12.56.35.72s.54.28.92.36c.38.08.81.13,1.3.16.49.03.98.06,1.49.1s1,.11,1.49.21c.49.1.92.26,1.3.48s.69.52.92.89c.23.37.35.86.35,1.46,0,.69-.18,1.26-.55,1.7-.37.44-.82.79-1.37,1.04-.55.25-1.14.42-1.77.51-.63.09-1.22.13-1.77.13-.76,0-1.4-.04-1.91-.13-.51-.09-.94-.19-1.28-.32s-.61-.24-.81-.34c-.2-.1-.37-.15-.52-.15-.09,0-.18.05-.26.16l-.28-.16,1.1-2.42Z"/>
        <path class="cls-1" d="M93.35,51.15c0,.11.03.18.09.23s.13.07.21.07v.36h-2.52v-.36c.08,0,.15-.02.21-.07.06-.05.09-.12.09-.23v-7.48c0-.11-.03-.18-.09-.23-.06-.05-.13-.07-.21-.07v-.36h2.52v.36c-.08,0-.15.02-.21.07-.06.05-.09.12-.09.23v2.82h5.36v-2.82c0-.11-.03-.18-.09-.23-.06-.05-.13-.07-.21-.07v-.36h2.52v.36c-.08,0-.15.02-.21.07-.06.05-.09.12-.09.23v7.48c0,.11.03.18.09.23s.13.07.21.07v.36h-2.52v-.36c.08,0,.15-.02.21-.07s.09-.12.09-.23v-3.02h-5.36v3.02Z"/>
        <path class="cls-1" d="M108.81,42.89c.73,0,1.42.09,2.07.28s1.21.47,1.69.84.86.84,1.14,1.41c.28.57.42,1.23.42,1.99s-.14,1.42-.42,1.99c-.28.57-.66,1.04-1.14,1.41-.48.37-1.04.64-1.69.81s-1.34.25-2.07.25-1.42-.08-2.07-.25c-.65-.17-1.21-.44-1.69-.81-.48-.37-.86-.84-1.14-1.41-.28-.57-.42-1.23-.42-1.99s.14-1.42.42-1.99c.28-.57.66-1.04,1.14-1.41s1.04-.65,1.69-.84c.65-.19,1.34-.28,2.07-.28ZM108.81,44.37c-.43,0-.84.07-1.25.21-.41.14-.77.34-1.09.6-.32.26-.58.58-.77.95-.19.37-.29.8-.29,1.28s.1.91.29,1.28c.19.37.45.69.77.95.32.26.68.46,1.09.6.41.14.82.21,1.25.21s.84-.07,1.25-.21c.41-.14.77-.34,1.09-.6s.58-.58.77-.95c.19-.37.29-.8.29-1.28s-.1-.91-.29-1.28-.45-.69-.77-.95-.68-.46-1.09-.6c-.41-.14-.82-.21-1.25-.21Z"/>
        <path class="cls-1" d="M116.77,43.67c0-.2-.17-.3-.5-.3v-.36h5.82c1.08,0,1.89.19,2.43.58s.81,1.06.81,2.02-.27,1.62-.81,1.99c-.54.37-1.35.55-2.43.55h-3.4v3c0,.2.14.3.42.3v.36h-2.84v-.36c.33,0,.5-.1.5-.3v-7.48ZM122.05,46.67c.39,0,.71-.07.97-.21.26-.14.39-.42.39-.85s-.13-.7-.39-.87c-.26-.17-.58-.25-.97-.25h-3.36v2.18h3.36Z"/>
        <path class="cls-1" d="M136.13,51.15c0,.11.03.18.09.23.06.05.13.07.21.07v.36h-2.52v-.36c.08,0,.15-.02.21-.07.06-.05.09-.12.09-.23v-7.48c0-.11-.03-.18-.09-.23-.06-.05-.13-.07-.21-.07v-.36h2.52v.36c-.08,0-.15.02-.21.07-.06.05-.09.12-.09.23v2.82h5.36v-2.82c0-.11-.03-.18-.09-.23-.06-.05-.13-.07-.21-.07v-.36h2.52v.36c-.08,0-.15.02-.21.07-.06.05-.09.12-.09.23v7.48c0,.11.03.18.09.23.06.05.13.07.21.07v.36h-2.52v-.36c.08,0,.15-.02.21-.07s.09-.12.09-.23v-3.02h-5.36v3.02Z"/>
        <path class="cls-1" d="M154.85,44.87c0-.25-.21-.38-.62-.38h-4.88v2h3.08c.23,0,.39-.02.5-.05.11-.03.16-.12.16-.27h.36v2.12h-.4c.04-.15-.01-.24-.16-.27-.15-.03-.35-.05-.62-.05h-2.92v2.36h5.12c.16,0,.29-.04.4-.11s.16-.17.16-.29h.36v2.1h-.36c0-.12-.05-.19-.16-.2-.11-.01-.24-.02-.4-.02h-7.34v-.36c.07,0,.13-.02.2-.07s.1-.12.1-.23v-7.48c0-.11-.03-.18-.1-.23-.07-.05-.13-.07-.2-.07v-.36h7.1c.41,0,.62-.12.62-.36h.36v2.22h-.36Z"/>
        <path class="cls-1" d="M163.69,43.01c1.19,0,2.11.2,2.78.59.67.39,1,1.06,1,2.01,0,.36-.07.68-.2.96-.13.28-.31.52-.53.73s-.46.37-.73.5c-.27.13-.54.22-.82.29l1.96,2.86c.11.15.22.26.35.33s.26.13.41.17v.36h-3.06v-.36c.17,0,.26-.06.26-.18,0-.13-.1-.34-.3-.62l-1.58-2.36h-2.78v2.86c0,.11.04.18.13.23s.17.07.25.07v.36h-2.66v-.36c.24,0,.36-.1.36-.3v-7.48c0-.2-.12-.3-.36-.3v-.36h5.52ZM163.65,46.81c1.31,0,1.96-.41,1.96-1.24,0-.33-.16-.6-.47-.79-.31-.19-.81-.29-1.49-.29h-3.16v2.32h3.16Z"/>
        <path class="cls-1" d="M178.19,44.87c0-.25-.21-.38-.62-.38h-4.88v2h3.08c.23,0,.39-.02.5-.05.11-.03.16-.12.16-.27h.36v2.12h-.4c.04-.15-.01-.24-.16-.27-.15-.03-.35-.05-.62-.05h-2.92v2.36h5.12c.16,0,.29-.04.4-.11s.16-.17.16-.29h.36v2.1h-.36c0-.12-.05-.19-.16-.2-.11-.01-.24-.02-.4-.02h-7.34v-.36c.07,0,.13-.02.2-.07s.1-.12.1-.23v-7.48c0-.11-.03-.18-.1-.23-.07-.05-.13-.07-.2-.07v-.36h7.1c.41,0,.62-.12.62-.36h.36v2.22h-.36Z"/>
        <path class="cls-1" d="M184.93,41.25c-.2.05-.33.11-.38.18-.05.07-.09.18-.12.34l-.62,5.34c-.01.11-.03.2-.04.29-.01.09-.02.18-.02.27,0,.11.03.18.1.21.07.03.15.05.26.05v.24h-1.68v-.24c.11,0,.19-.02.26-.05.07-.03.1-.1.1-.21,0-.09,0-.18-.02-.27-.01-.09-.03-.18-.04-.29l-.62-5.34c-.03-.16-.07-.27-.12-.34-.05-.07-.18-.13-.38-.18v-.24h3.32v.24ZM183.27,49.37c.35,0,.65.13.9.38s.38.55.38.9-.13.64-.38.87c-.25.23-.55.35-.9.35s-.65-.12-.9-.35c-.25-.23-.38-.52-.38-.87s.13-.65.38-.9.55-.38.9-.38Z"/>
      </g>
    </g>
  </g>
</svg>