<svg xmlns="http://www.w3.org/2000/svg" version="1.1" xmlns:xlink="http://www.w3.org/1999/xlink" xmlns:svgjs="http://svgjs.dev/svgjs" width="500" height="500"><svg id="SvgjsSvg1012" xmlns="http://www.w3.org/2000/svg" version="1.1" viewBox="0 0 500 500">
  <!-- Generator: Adobe Illustrator 29.1.0, SVG Export Plug-In . SVG Version: 2.1.0 Build 142)  -->
  <defs>
    <style>
      .st0 {
        fill: #7aa6bf;
      }

      .st1 {
        fill: #a6bf89;
      }
    </style>
  </defs>
  <g id="SvgjsG1011">
    <path class="st1" d="M327.33,211.3c.09-3.6,3.23-8.09,4.37-12.3,3.35-12.45,1.87-25.15-.59-37.61l-4.77,9.88c-15.66,24.73-60.04,20.51-86.32,19.87-23.08-.56-67.09-4.7-85.77,8.8-1.84,1.33-9.46,8.72-10.25,10.36-.63,1.31-.71,3.06-.83,4.49-1.14,14.58-.18,32.46,0,47.35,0,.81.24,1.57.5,2.33-.17.8-9.13,2-9.37,6.39-.16,2.94,6.73,9.29,9.23,11.37,45.68,37.98,147.91,23.48,201.59,6.85,13.81-4.28,26.71-10.65,41.12-13.19,2.03-8.82,3.71-17.84,3.52-26.93l-62.43,15.18c.32-17.59-.43-35.24,0-52.84ZM149.5,215.09h3.15v50.21h-3.15v-50.21ZM158.96,216.26l2.12.08,1.03.8v48.17h-3.15v-49.04ZM317.87,219.18l3.15-1.75v47.88h-3.15v-46.12ZM168.42,217.43l3.15.58v47.29h-3.15v-47.88ZM177.25,219.18l3.78.88v44.37c0,1.16-3.78,1.16-3.78,0v-45.25ZM186.71,220.93l3.78.88v42.62c0,1.16-3.78,1.16-3.78,0v-43.5ZM196.17,222.1l3.61,1.42.1,40.86c-.32,1.21-2.61.94-3.71.92v-43.2ZM308.42,265.31v-39.99l3.78-1.45c.31.21-.63.74-.63.87v40.58h-3.15ZM205.63,223.85l3.15.58v40.87h-3.15v-41.45ZM215.08,225.6h3.15v39.7h-3.15v-39.7ZM227.7,227.36v37.95h-3.16c.05-12.82-.06-25.79,0-38.54l3.15.59ZM298.96,227.94l3.78-.58v37.07c0,1.16-3.78,1.16-3.78,0v-36.49ZM237.16,265.31l-3.78-.88v-35.61l.92-.74,2.86.44v36.78ZM242.83,265.31v-35.32l.92-.74,2.86.44v34.74l-3.78.88ZM293.28,229.69v34.74c0,1.16-3.78,1.16-3.78,0v-33.86l3.78-.88ZM252.29,230.27h3.15v35.03h-3.15v-35.03ZM283.82,265.31c-1.57.02-3.59.43-3.78-1.46l.59-32.73,3.19-.26v34.45ZM271.21,230.86h3.15v34.45h-3.15v-34.45ZM261.75,230.86h3.15v34.45h-3.15v-34.45Z"></path>
  </g>
  <g id="SvgjsG1010">
    <path class="st0" d="M408.49,137.89c-64.63-74.67-225.62-87.35-307.38-19.6-8.28,6.86-23.95,21.81-26.01,30.38-1.61,6.69-.27,10.2,2.86,11.69.8-.03,1.6-.08,2.4-.16,4.27-5.98,9.45-11.42,15.01-16.29,3.13-6.81,28.59-26.77,33.22-29.83,80.5-53.15,219.37-29.22,270.88,36.62,86.37,110.39-36.83,254.56-223.65,221.5-39.21-6.94-84.31-34.92-87.38-64.25-2.69-4.74-5.24-9.51-7.58-14.39-.19-.06-.39-.12-.59-.16-2.48-.53-5.53-.13-8.17.41-6.95,6.18.28,23.93,3.44,29.62,48.68,87.61,221.91,76.98,305.5,20.17,72.42-49.21,77.97-147.31,27.44-205.69Z"></path>
  </g>
  <g id="SvgjsG1009" data-name="_x39_X3S0u">
    <path class="st0" d="M375.17,152.4c-57.71-66.68-201.47-78-274.47-17.5-6.88,5.7-19.47,17.65-22.67,25.45,7.01-.27,13.69-2.3,19.69-5.64,6.48-7.58,23.94-21.21,27.52-23.58,71.88-47.46,195.88-26.09,241.88,32.7,77.12,98.57-32.89,227.31-199.71,197.79-31.64-5.6-67.57-26.55-76.22-49.86-2.37-5.69-4.54-17.01-10.92-18.37-2.12-.45-4.65-.23-6.99.18-3.44,6.64,2.04,19.92,4.58,24.49,43.47,78.23,198.15,68.74,272.8,18.01,64.67-43.94,69.62-131.54,24.5-183.68Z"></path>
  </g>
  <path class="st0" d="M119,127.33c10.66-4.79,20.91-10.46,30.64-16.94,2.67-1.78.16-6.11-2.52-4.32-9.73,6.48-19.98,12.15-30.64,16.94-1.23.55-1.53,2.34-.9,3.42.74,1.27,2.18,1.45,3.42.9h0Z"></path>
  <path class="st0" d="M368.35,150.16c.96.67,1.91,1.37,2.84,2.09l-3.04-2.35c4.93,3.85,9.31,8.33,13.15,13.27l-2.35-3.04c5.06,6.56,9.12,13.81,12.34,21.44l-1.51-3.58c4.74,11.32,7.48,23.32,9.12,35.46l-.54-3.99c1.84,13.88,2.26,27.89,2.67,41.87.11,3.92,1.6,7.81,4.39,10.61,2.6,2.6,6.87,4.56,10.61,4.39s7.9-1.45,10.61-4.39,4.51-6.59,4.39-10.61c-.56-19.5-1.32-39.11-5.3-58.27-1.64-7.88-3.92-15.61-7.02-23.04-3.4-8.15-7.22-16-12.44-23.15-3.13-4.28-6.44-8.48-10.19-12.24-3.84-3.85-8.15-7.26-12.6-10.38-1.72-1.1-3.58-1.69-5.58-1.78-1.99-.45-3.99-.36-5.98.27-3.48.96-7.25,3.65-8.96,6.89-1.84,3.48-2.76,7.7-1.51,11.56l1.51,3.58c1.33,2.25,3.13,4.05,5.38,5.38h0Z"></path>
  <path class="st0" d="M398.42,253.03c-.04,2.36-.22,4.72-.53,7.06l.54-3.99c-.98,6.89-3.1,13.53-5.79,19.93l1.51-3.58c-1.73,4.07-3.66,8.05-5.71,11.97-1,1.93-2.03,3.84-3.07,5.75-.98,1.79-1.87,3.71-3.08,5.35l2.35-3.04c-.3.37-.61.69-.97,1l3.04-2.35c-.29.21-.56.36-.89.51l3.58-1.51c-.5.17-1.02.3-1.52.48-2.42.86-4.16,1.71-6.12,3.22-2.76,2.13-4.73,4.81-5.67,8.23-1.19,4.33-.29,8.23,1.63,12.09,1.61,3.24,5.57,5.96,8.96,6.89,3.59.99,8.37.54,11.56-1.51s6.02-5.14,6.89-8.96l.54-3.99c0-2.71-.69-5.23-2.05-7.57l-.11-.22,1.51,3.58-.03-.21v7.98l.04-.19-1.51,3.58.11-.18-2.35,3.04.16-.17-3.04,2.35c.24-.17.46-.3.73-.42l-3.58,1.51c3.67-1.46,7.17-2.5,9.94-5.55,2.09-2.29,3.55-4.75,5.02-7.42,1.94-3.55,3.86-7.12,5.67-10.74,4.1-8.23,7.9-16.84,10.02-25.82,1.32-5.57,2.12-11.37,2.21-17.1.06-3.81-1.71-7.93-4.39-10.61s-6.87-4.56-10.61-4.39-7.9,1.45-10.61,4.39-4.33,6.52-4.39,10.61h0Z"></path>
  <path class="st0" d="M363.56,112.57c-8.2-5.9-16.8-11.21-25.76-15.87-3.56-1.85-7.62-2.6-11.56-1.51-3.48.96-7.25,3.65-8.96,6.89-1.84,3.48-2.76,7.7-1.51,11.56,1.17,3.62,3.42,7.15,6.89,8.96,8.96,4.67,17.56,9.97,25.76,15.87,1.72,1.1,3.58,1.69,5.58,1.78,1.99.45,3.99.36,5.98-.27,3.48-.96,7.25-3.65,8.96-6.89,1.84-3.48,2.76-7.7,1.51-11.56l-1.51-3.58c-1.33-2.25-3.13-4.05-5.38-5.38h0Z"></path>
  <path class="st0" d="M319.49,95.64c-4.63.3-9.26.14-13.86-.45l2.66.36c-6.32-.86-12.49-2.53-18.37-5l2.39,1.01c-3.2-1.36-6.28-2.95-9.25-4.76l-5.05,18.63c7.02-.13,14.03.27,20.99,1.2l-2.66-.36c6.8.93,13.51,2.36,20.1,4.29l5.32-19.29c-10.88-2.19-21.75-4.39-32.63-6.58-11.25-2.27-22.48-5.03-33.99-5.42-6.19-.21-12.33-.52-18.47-1.34l2.66.36c-2.73-.37-5.45-.82-8.15-1.35s-5.29-.4-7.71,1.01c-2.07,1.21-4.05,3.59-4.6,5.98-.58,2.56-.46,5.43,1.01,7.71,1.35,2.09,3.44,4.11,5.98,4.6,6.52,1.26,13.13,2.15,19.75,2.63,5.93.43,11.91.25,17.81,1.02l-2.66-.36c4.63.63,9.21,1.67,13.79,2.6s9.25,1.87,13.88,2.8c9.33,1.88,18.67,3.77,28,5.65,2.65.54,5.31.39,7.71-1.01,2.07-1.21,4.05-3.59,4.6-5.98,1.22-5.35-1.61-10.73-6.98-12.3-14.13-4.13-29.02-6.12-43.74-5.84-4.24.08-8.66,3.03-9.64,7.34s.68,8.91,4.6,11.29c13.79,8.41,30.4,12.62,46.53,11.58,2.66-.17,5.14-1,7.07-2.93,1.73-1.73,3.04-4.58,2.93-7.07s-.97-5.27-2.93-7.07-4.43-3.1-7.07-2.93h0Z"></path>
  <path class="st0" d="M374.91,312.05c-5.49,3.29-10.69,7.14-15.5,11.36-3.98,3.48-7.42,7.58-11.59,10.83l2.02-1.56c-1.46,1.11-2.99,2.06-4.67,2.81l2.39-1.01c-1.83.76-3.73,1.16-5.69,1.43l2.66-.36c-2.53.33-5.08.58-7.6.99s-4.75,1.3-7.1,2.37c-2.15.97-4,3.8-4.6,5.98-.66,2.39-.36,5.58,1.01,7.71s3.43,4.01,5.98,4.6l2.66.36c1.81,0,3.49-.46,5.05-1.37l.39-.18-2.39,1.01c1.73-.71,3.53-1.08,5.38-1.34l-2.66.36c3.96-.52,8.11-.64,11.86-2.11,4.25-1.66,7.68-3.9,11.13-6.91,2.27-1.98,4.32-4.19,6.48-6.28,2.45-2.38,5.03-4.61,7.72-6.7l-2.02,1.56c2.94-2.26,6-4.35,9.19-6.26,2.17-1.3,3.92-3.53,4.6-5.98s.36-5.58-1.01-7.71c-2.91-4.51-8.88-6.46-13.68-3.59h0Z"></path>
  <path class="st0" d="M118.26,120.9c10.39,3.71,20.48-2.36,28.73-8.08,1.99-1.38,3.99-2.75,6.1-3.96,1.03-.59,2.09-1.12,3.16-1.63.88-.42.26-.12.06-.04.28-.12.56-.23.85-.34.71-.28,1.43-.54,2.15-.79,5-1.73,10.14-3.09,15.21-4.58,10.53-3.11,21.02-6.37,31.59-9.32,1.23-.34,2.47-.66,3.72-.89.13-.02,1.11-.19.51-.1s.37-.03.51-.05c.7-.06,1.41-.09,2.12-.06.31.01.63.05.94.06-.78-.02-.27-.05-.04,0,.47.11.93.21,1.38.36.17.06.51.14.67.25-.91-.59-.47-.2-.21-.06.3.17,1.22.95,1.52.94-.15,0-.82-.76-.19-.11.16.17.34.32.5.49.12.12.33.46.46.52-.18-.09-.56-.91-.18-.17.04.09.31.59.33.6-.1-.03-.35-1.15-.11-.25.06.22.12.44.19.66.25.9-.02-.74-.02-.12v.18c.44-2.02,1.42-3.12,2.94-3.31l.32-.05c-.2,0-.4,0-.6-.02-.66-.02-1.32-.05-1.98-.08-1.4-.06-2.8-.12-4.2-.17-12.35-.51-24.7-1.02-37.05-1.53-2.62-.11-5.12,2.38-5,5,.13,2.8,2.2,4.88,5,5,11.69.48,23.38.96,35.07,1.45,2.9.12,5.85.4,8.75.35,1.93-.03,3.71-.66,5.05-2.1,1.71-1.84,1.85-4.22,1.48-6.56-.84-5.43-5.95-9.65-11.11-10.83-6.07-1.39-12.08.55-17.86,2.26s-11.27,3.33-16.91,4.99-11.27,3.33-16.91,4.99-10.96,3.11-15.99,5.78-9.68,6.65-14.81,9.52c-.62.34-1.25.67-1.89.98-.26.12-.52.24-.78.36-1.27.58.93-.32-.39.15s-2.68.91-4.07,1.19c-.22.04-.63.18-.83.15l.5-.06c-.21.02-.41.05-.62.06-.69.06-1.38.08-2.07.05-.3-.01-.74.04-1.03-.07.62.23.48.08-.1-.03-.75-.15-1.48-.36-2.2-.62-2.47-.88-5.58.99-6.15,3.49-.64,2.81.85,5.21,3.49,6.15h0Z"></path>
  <path class="st0" d="M207.7,380.92c16.53-1.32,33.05-2.62,49.58-3.95,8.04-.65,16.15-1.39,24-3.31,7.59-1.86,14.74-5.04,22.09-7.61,4.2-1.46,8.47-2.67,12.83-3.56,1.1-.22,2.19-.43,3.3-.61.47-.08.95-.15,1.42-.23.32-.05.63-.09.95-.14-.54.07-.51.07.09-.01,2.22-.27,4.44-.47,6.68-.6,3.15-.18,5.79-3.06,4.82-6.33-.87-2.92-3.14-5.06-6.07-5.88-2.71-.76-5.46-.19-7.92,1.06-1.82.93-3.37,2.33-5.03,3.51-1.81,1.28-3.67,2.48-5.59,3.58s-3.89,2.12-5.9,3.04c-.52.24-1.04.47-1.57.69.81-.35-.07.02-.39.15-1.06.42-2.13.82-3.21,1.19-4.19,1.44-8.51,2.48-12.89,3.12-2.6.38-4.25,3.8-3.49,6.15.92,2.84,3.37,3.9,6.15,3.49,8.14-1.19,16.03-3.81,23.35-7.56,3.5-1.79,6.84-3.88,9.99-6.23.76-.57,1.5-1.16,2.28-1.68.33-.22.69-.4,1.02-.63.51-.25.46-.25-.13,0,.24-.1.49-.18.75-.24,1.21-.44-1.06.13,0,0,.55.03.43,0-.37-.07.21.04.41.1.61.17l-.62-.25c.45.28.37.19-.25-.26.37.38.3.27-.2-.33-.26-.75-.31-.87-.15-.35,1.61-2.11,3.21-4.22,4.82-6.33-8.25.47-16.48,1.86-24.37,4.32-7.44,2.31-14.54,5.57-22.01,7.8-3.8,1.13-7.68,1.94-11.59,2.54-.39.06-.79.12-1.18.17-.23.03-1.27.17-.33.05-.95.12-1.9.24-2.85.34-2.06.23-4.12.42-6.19.6-8.2.7-16.42,1.32-24.63,1.97-9.27.74-18.54,1.48-27.81,2.22-2.6.21-5.13,2.15-5,5,.11,2.53,2.21,5.22,5,5h0Z"></path>
  <path class="st0" d="M203.06,380.82c2.62,0,5.12-2.3,5-5s-2.2-5-5-5c-2.62,0-5.12,2.3-5,5s2.2,5,5,5h0Z"></path>
</svg><style>@media (prefers-color-scheme: light) { :root { filter: none; } }
@media (prefers-color-scheme: dark) { :root { filter: none; } }
</style></svg>